<mxfile host="app.diagrams.net" modified="2023-02-15T12:52:01.222Z" agent="5.0 (Macintosh; Intel Mac OS X 10_15_2) AppleWebKit/537.36 (KHTML, like Gecko) Chrome/109.0.0.0 Safari/537.36" etag="_EZaS4Edk_bOhIKB3EAW" version="20.8.20" type="github">
  <diagram name="第 1 页" id="UEUSt8Z2y1ufootSzVJE">
    <mxGraphModel dx="954" dy="569" grid="1" gridSize="10" guides="1" tooltips="1" connect="1" arrows="1" fold="1" page="1" pageScale="1" pageWidth="827" pageHeight="1169" math="0" shadow="0">
      <root>
        <mxCell id="0" />
        <mxCell id="1" parent="0" />
        <mxCell id="7JapQ6d2uV1ajBbxMQzk-2" value="" style="rounded=0;whiteSpace=wrap;html=1;strokeWidth=3;fillColor=#d5e8d4;strokeColor=#82b366;" vertex="1" parent="1">
          <mxGeometry x="320" y="250" width="180" height="40" as="geometry" />
        </mxCell>
        <mxCell id="7JapQ6d2uV1ajBbxMQzk-3" value="" style="shape=image;verticalLabelPosition=bottom;labelBackgroundColor=default;verticalAlign=top;aspect=fixed;imageAspect=0;image=data:image/png,iVBORw0KGgoAAAANSUhEUgAAAPAAAABzCAYAAACmcY/kAAAACXBIWXMAAAsTAAALEwEAmpwYAAAF92lUWHRYTUw6Y29tLmFkb2JlLnhtcAAAAAAAPD94cGFja2V0IGJlZ2luPSLvu78iIGlkPSJXNU0wTXBDZWhpSHpyZVN6TlRjemtjOWQiPz4gPHg6eG1wbWV0YSB4bWxuczp4PSJhZG9iZTpuczptZXRhLyIgeDp4bXB0az0iQWRvYmUgWE1QIENvcmUgNS42LWMxNDggNzkuMTY0MDM2LCAyMDE5LzA4LzEzLTAxOjA2OjU3ICAgICAgICAiPiA8cmRmOlJERiB4bWxuczpyZGY9Imh0dHA6Ly93d3cudzMub3JnLzE5OTkvMDIvMjItcmRmLXN5bnRheC1ucyMiPiA8cmRmOkRlc2NyaXB0aW9uIHJkZjphYm91dD0iIiB4bWxuczp4bXA9Imh0dHA6Ly9ucy5hZG9iZS5jb20veGFwLzEuMC8iIHhtbG5zOmRjPSJodHRwOi8vcHVybC5vcmcvZGMvZWxlbWVudHMvMS4xLyIgeG1sbnM6cGhvdG9zaG9wPSJodHRwOi8vbnMuYWRvYmUuY29tL3Bob3Rvc2hvcC8xLjAvIiB4bWxuczp4bXBNTT0iaHR0cDovL25zLmFkb2JlLmNvbS94YXAvMS4wL21tLyIgeG1sbnM6c3RFdnQ9Imh0dHA6Ly9ucy5hZG9iZS5jb20veGFwLzEuMC9zVHlwZS9SZXNvdXJjZUV2ZW50IyIgeG1wOkNyZWF0b3JUb29sPSJBZG9iZSBQaG90b3Nob3AgMjEuMCAoTWFjaW50b3NoKSIgeG1wOkNyZWF0ZURhdGU9IjIwMjMtMDItMTVUMjA6Mjk6NTkrMDg6MDAiIHhtcDpNb2RpZnlEYXRlPSIyMDIzLTAyLTE1VDIwOjMxOjM4KzA4OjAwIiB4bXA6TWV0YWRhdGFEYXRlPSIyMDIzLTAyLTE1VDIwOjMxOjM4KzA4OjAwIiBkYzpmb3JtYXQ9ImltYWdlL3BuZyIgcGhvdG9zaG9wOkNvbG9yTW9kZT0iMyIgcGhvdG9zaG9wOklDQ1Byb2ZpbGU9InNSR0IgSUVDNjE5NjYtMi4xIiB4bXBNTTpJbnN0YW5jZUlEPSJ4bXAuaWlkOmZhMjU3YzJjLTA5OGMtNGI3Yi1hNTc0LTNmMTUyNTc5NjljMiIgeG1wTU06RG9jdW1lbnRJRD0iYWRvYmU6ZG9jaWQ6cGhvdG9zaG9wOjcwYTcwNWI5LWFkOWUtMTk0Yy1hYmU5LTc0NGM3MThjZjg1OCIgeG1wTU06T3JpZ2luYWxEb2N1bWVudElEPSJ4bXAuZGlkOmYzNzc5NmJmLWZlMGUtNDlkYS05NDBlLTQ4MmQyY2I3YjYwMSI+IDx4bXBNTTpIaXN0b3J5PiA8cmRmOlNlcT4gPHJkZjpsaSBzdEV2dDphY3Rpb249ImNyZWF0ZWQiIHN0RXZ0Omluc3RhbmNlSUQ9InhtcC5paWQ6ZjM3Nzk2YmYtZmUwZS00OWRhLTk0MGUtNDgyZDJjYjdiNjAxIiBzdEV2dDp3aGVuPSIyMDIzLTAyLTE1VDIwOjI5OjU5KzA4OjAwIiBzdEV2dDpzb2Z0d2FyZUFnZW50PSJBZG9iZSBQaG90b3Nob3AgMjEuMCAoTWFjaW50b3NoKSIvPiA8cmRmOmxpIHN0RXZ0OmFjdGlvbj0ic2F2ZWQiIHN0RXZ0Omluc3RhbmNlSUQ9InhtcC5paWQ6ZmEyNTdjMmMtMDk4Yy00YjdiLWE1NzQtM2YxNTI1Nzk2OWMyIiBzdEV2dDp3aGVuPSIyMDIzLTAyLTE1VDIwOjMxOjM4KzA4OjAwIiBzdEV2dDpzb2Z0d2FyZUFnZW50PSJBZG9iZSBQaG90b3Nob3AgMjEuMCAoTWFjaW50b3NoKSIgc3RFdnQ6Y2hhbmdlZD0iLyIvPiA8L3JkZjpTZXE+IDwveG1wTU06SGlzdG9yeT4gPC9yZGY6RGVzY3JpcHRpb24+IDwvcmRmOlJERj4gPC94OnhtcG1ldGE+IDw/eHBhY2tldCBlbmQ9InIiPz4Ic+GFAAALoUlEQVR4nO2dT2gbVx7Hf11ryEAsOlCbCGJRYTlrsY6JWVdEbOKt2NZUkJgYmlJDYjYQlhx66GEPe9jD5tBALgtd2LDsoZCSBhzSQIoTVsUJONsElE0CyjoBh0TCS31QsQsT5MAzI+M9eEaWxmNbmnnz50nfz0l+lub3pN985/d+b977zVvr6+sEABCTX/jdAQCAfSBgAAQGAgZAYCBgAAQGAgZAYCBgAAQGAgZAYCBgAAQGAgZAYCBgAAQGAgZAYCBgAAQGAgZAYCBgAAQGAgZAYCBgAAQGAgZAYCBgAAQGAgZAYCBgAAQGAgZAYCBgAAQGAgZAYCBgAAQGAgZAYCBgAAQGAgZAYCBgAAQGAgZAYCBgAAQGAgZAYCBgAAQm5JUhqUMqmNu0NS3O41iKoqhLPy8N2+0b2B34b5Pw3vDz8pvygN/9IPJQwDq9Na+L3I4Vov84PBZojLb134H4gbsLCwsx4++giNhrAQuNVRQKAnYjIWgcXbzViw5jrDh5avLClatX/uxfryBgO/Tu/hZPcRoJQQOk0+nZ2dlZok3/905NTU34LeC31tfXm/6Qg0jkzhDMxrEmTk98c+XrK39p5jP69w6cgJuNwO3qP6dIe6QXVKEQbfa9mDmeuTX93fTnXvajFicR2OmJzFMIQROVCMB/TaKtav2mi19v9lb2OBEJKeC2R+6UKZ1OE1WIWIWRLMt1rxmrb8vlcsRWWN0xIj0RGhoaaugYpeUS5R/n/fiqQEdRFFVV1SIF5KLTrgLmkjem02m6efNmw+9P9CVoYWWhru3MmTN0/vz5hj6fy+UofTTdsL0Wxre8f+nnpWFzCiLtkV5oq1q/H/2xJeDEwcQzqtA8q7CQLMuMKhSyes0Yk2VZZqqqKqXFUg+ZrlqxvphlpNotCqnLqrlLxVhf7FWtzd36xCN/Yozt/qYA0ur+GzkycjWXy6X4/3KW9FKFim7coWhkbsOWgOeezp1o9jNWX3B+fr5p21NTU3Tm9Jm6NqVLWX754uVHTR/MIbIse2svxMdem/jPyyGuG7YaGmUIt5SS10nMA68jsKgRv5Yg+a8V8DoHdpz8W5zEvuVDs3dmHZ+QF7+4SBe/uMipR67TUv5rBTwTsLamxS/941KGiP5FZP9KnEql6Mu/f1n9Ww7J587+4ewdHn0E2yOg/3y9T+0VthZy2KXwshBiFabJIXljgsN0Eli1mdstXkvxA/GK+71vnYUcdhHdf41i9nOkJ/LvH//34/s+dmlbuETg8N7wc8aYX8nNi0belMlkstO3pz9zuzMiAv/tjKIoqh92G4HnENqvyNSQXVZh3NMFpUuhiZMTxCrbTy4Z0YqI6PLly0SmWJM4mKBUKrXlvVaoy2pT952bpO381yjtIuBAI8sy9ylccz63G7N3ZmlhYaGubXx8vPGFHPdzbgo40Ljhv0ZROpUVv2zvhnC3kezixhDR89s6bXO53YqPQ/yi3CkHVsA8TwleM3WuzP65cQX3eiGHy7Sd/6yYPDV5wdx2/dr1P3lh2w5cBMyrMkFyOHkjn8/X5URB3qzudQR2axFEu/rPCj3SB+1Ow7a08aDMOW24kKPlUVfUTr/70Ayu5cDR/dEHI0dGrrp1/O0I7w0/lzqkgrRHauj2BLCmXf1XKpUifti1C/cIHN0ffWD8CM3+GDwmKqpDIGOHSIgqfm31EpF295+6rHaZ29ysheY0xeAq4JovWi05InVIhUY76XSiwlwtgYiKQweHnjk5pgU8l+jxOB432sR/O2Jx0XIzH3bse64C1ta0uJUTuvd1P1z6aekwT1tmBgcGb+v7RX9V2/7oyaOPedlwerXUayrVUkwcTDyzs73PDVrdf60I9xw4k8lkqf7K0qsuq11jx8Yu8bZVy/z8fMLk/OLExMSUmzabJRaLLZjbgiJeA/hPLLjnwNO3pz/r3tf9UK+6UC3Bmc1mM7xtGdRGDb0CRFFRFNXvkp9bqAR/1h/+2wLvFIfrkNyVE2rpp6XDVol/+O3w0/Lr8iGetqL7ow/0l71Em/dmRXpUR9BoV/9ZLOIopj9M35n5fuYcj+PrE4RcBezabaTx8fGbZBqKsRXWOfrR6D952Rg5MnJVn3SoW/2DoZdz2tF/eh2tOoHxEq9buDaku37j+h/De8MZxphRxaFItJHr8LKRz+eH9JdVG5GeyKLToZeXj1Bxy5bTwuci+88utc8+cgM31nO7mpOV35QH9BO0GOmJLPLeFG0sATRsUIgqHG14sZwu0Ev2BPdfW+D6bqTxk+Pfamta3E3HaGtafOL0xDdYsMGfdvHfJx9/8ldTUzF1NHWfpw03IrCnJXV2Q3+E4+9qmjwrF1NLQEvnNEPRj2cHBcV/drDwOfe+u2HD9hDaqzzRLTs7/XCKoqiswv5r9T85JFcYYzKFzLU16v/PKixEFfqlja7tuP+0Ufu7ibeV/ddOOM2B3Y5Sbh1/x3t7PG5hjJ0Y+1v2VtYQcDHWF3vFVlhnqVT6TW0/ht4bepzP54dqn3rH+1bNDrSk/5olOZy8YT4+7+GzW9geQgs+zHR9aFfz+xSJNiJG9N3ovdJi6bdW/ah7vwcL+OG/TbwYPrtlp21K6njF5KnJC+ZhYyNOShxMPCPjdkqFQtgO6Q2jH4x+ZWoKdAkdM06H0G7spBGioLYVNQ/Vqu7mSX+YrhYtl0PytvWP557OnQi/HX7KVpgh4qZ2Atmk7f03OzubJtNIxKsUhseFwraA3TixRC7JUrOPtireWF/sVTMrecqvy4f0HUvVhQ1Sh1Rw4ynw8F/dMk4DT6NvJBIpOT0GhtAckDqkglm8dp+4V5P7GiLuzd7KHo++G73HqbuANlIdi2WcXk4gcqk3DQE7YOT9ka+tNsErXcqyk/2zNVHLGIL2lhZLPV4u8Wx1pqamJsg03NfnIbyiaLW9tFkCtb3Nx9q/TVPzOJK6k8CpeA20NS1uGk5Xh9S8bPBGFP+F94afm5qKRN7vzeZRrjZQEdjP6vuN0v1O9xOpQypYiTfWF3vFU1jaqtav52TVSEz6BnupQyr4UXRuJ4Tw377uh1alY4Ocq+9EoAQcZKL7ow+kDqmgqqpCmxGRaENcxdTR1H0XnjJP5dflQ4lEYp5MW/uIqDeXy6WkDqngdrWMVmFwYPC2XrTO86GzxYQZFyDgXTDKnNZMeGy5TaKtafEf7v3we7f6MPd87ljmeOaWbm+LkLPZbAZC3pnkcPKGvhWyzn9yp7zixdDZasKMB4EScFByqLFjY5ekDqlgGipvqSapdCnLXg29pr+b/lxb0+L6Gmjz/dU6IScPJ6950SczQfGfGf321hBZXHy9mHU+ED9w19TELeoHSsBByKFGPxj9Sq//1EvbCJeIiuMnx7/1YyJJW9X6Y32xV7Q1GhPp/c0/zr/nx4x1EPxnZnBg8PZ24vXi4pscTt7QCwXUnUe8on6gZqGDwMzdmbPVDeYWTndjY3uzGLm2aZa6jkhPZNHzjgUMfXtjjCx+Hx7i7X6n+4ncKa/IIbli3NOVZZnJssxKpVKkpnpJ/Xm0zU4yO0DAFpjqI29EuQA+4UFb1fqTh5PX8o/zRlN1M4TfFxm/0StrmiesiPS90jxsqKqqkEq/bvZzPM+jQA2hg4QewapDraCJ1+DRw0efamtaXOlSlsnob0D76iVshZkfUlZNfXgVOtDXuTe63rtqn4dtA0TgbRAtggVxYYeflN+UB2pSDCLin/POfD9zroG5BtfsEwVTwIHfweIQfD+P0Fa1fmPFnFsTVrFYbKG0XFqxiPhE5P6cSaBqYgEAmgM5MAACAwEDIDAQMAACAwEDIDAQMAACAwEDIDAQMAACAwEDIDAQMAACAwEDIDAQMAACAwEDIDAQMAACAwEDIDAQMAACAwEDIDAQMAACAwEDIDAQMAACAwEDIDAQMAACAwEDIDAQMAACAwEDIDAQMAACAwEDIDAQMAACAwEDIDAQMAAC83+EA0pY1bVO3QAAAABJRU5ErkJggg==;" vertex="1" parent="1">
          <mxGeometry x="320" y="250" width="83.48" height="40" as="geometry" />
        </mxCell>
        <mxCell id="7JapQ6d2uV1ajBbxMQzk-4" value="" style="shape=image;verticalLabelPosition=bottom;labelBackgroundColor=default;verticalAlign=top;aspect=fixed;imageAspect=0;image=data:image/png,iVBORw0KGgoAAAANSUhEUgAAAPAAAABzCAYAAACmcY/kAAAACXBIWXMAAAsTAAALEwEAmpwYAAAF92lUWHRYTUw6Y29tLmFkb2JlLnhtcAAAAAAAPD94cGFja2V0IGJlZ2luPSLvu78iIGlkPSJXNU0wTXBDZWhpSHpyZVN6TlRjemtjOWQiPz4gPHg6eG1wbWV0YSB4bWxuczp4PSJhZG9iZTpuczptZXRhLyIgeDp4bXB0az0iQWRvYmUgWE1QIENvcmUgNS42LWMxNDggNzkuMTY0MDM2LCAyMDE5LzA4LzEzLTAxOjA2OjU3ICAgICAgICAiPiA8cmRmOlJERiB4bWxuczpyZGY9Imh0dHA6Ly93d3cudzMub3JnLzE5OTkvMDIvMjItcmRmLXN5bnRheC1ucyMiPiA8cmRmOkRlc2NyaXB0aW9uIHJkZjphYm91dD0iIiB4bWxuczp4bXA9Imh0dHA6Ly9ucy5hZG9iZS5jb20veGFwLzEuMC8iIHhtbG5zOmRjPSJodHRwOi8vcHVybC5vcmcvZGMvZWxlbWVudHMvMS4xLyIgeG1sbnM6cGhvdG9zaG9wPSJodHRwOi8vbnMuYWRvYmUuY29tL3Bob3Rvc2hvcC8xLjAvIiB4bWxuczp4bXBNTT0iaHR0cDovL25zLmFkb2JlLmNvbS94YXAvMS4wL21tLyIgeG1sbnM6c3RFdnQ9Imh0dHA6Ly9ucy5hZG9iZS5jb20veGFwLzEuMC9zVHlwZS9SZXNvdXJjZUV2ZW50IyIgeG1wOkNyZWF0b3JUb29sPSJBZG9iZSBQaG90b3Nob3AgMjEuMCAoTWFjaW50b3NoKSIgeG1wOkNyZWF0ZURhdGU9IjIwMjMtMDItMTVUMjA6Mjk6NTkrMDg6MDAiIHhtcDpNb2RpZnlEYXRlPSIyMDIzLTAyLTE1VDIwOjMxOjM4KzA4OjAwIiB4bXA6TWV0YWRhdGFEYXRlPSIyMDIzLTAyLTE1VDIwOjMxOjM4KzA4OjAwIiBkYzpmb3JtYXQ9ImltYWdlL3BuZyIgcGhvdG9zaG9wOkNvbG9yTW9kZT0iMyIgcGhvdG9zaG9wOklDQ1Byb2ZpbGU9InNSR0IgSUVDNjE5NjYtMi4xIiB4bXBNTTpJbnN0YW5jZUlEPSJ4bXAuaWlkOmZhMjU3YzJjLTA5OGMtNGI3Yi1hNTc0LTNmMTUyNTc5NjljMiIgeG1wTU06RG9jdW1lbnRJRD0iYWRvYmU6ZG9jaWQ6cGhvdG9zaG9wOjcwYTcwNWI5LWFkOWUtMTk0Yy1hYmU5LTc0NGM3MThjZjg1OCIgeG1wTU06T3JpZ2luYWxEb2N1bWVudElEPSJ4bXAuZGlkOmYzNzc5NmJmLWZlMGUtNDlkYS05NDBlLTQ4MmQyY2I3YjYwMSI+IDx4bXBNTTpIaXN0b3J5PiA8cmRmOlNlcT4gPHJkZjpsaSBzdEV2dDphY3Rpb249ImNyZWF0ZWQiIHN0RXZ0Omluc3RhbmNlSUQ9InhtcC5paWQ6ZjM3Nzk2YmYtZmUwZS00OWRhLTk0MGUtNDgyZDJjYjdiNjAxIiBzdEV2dDp3aGVuPSIyMDIzLTAyLTE1VDIwOjI5OjU5KzA4OjAwIiBzdEV2dDpzb2Z0d2FyZUFnZW50PSJBZG9iZSBQaG90b3Nob3AgMjEuMCAoTWFjaW50b3NoKSIvPiA8cmRmOmxpIHN0RXZ0OmFjdGlvbj0ic2F2ZWQiIHN0RXZ0Omluc3RhbmNlSUQ9InhtcC5paWQ6ZmEyNTdjMmMtMDk4Yy00YjdiLWE1NzQtM2YxNTI1Nzk2OWMyIiBzdEV2dDp3aGVuPSIyMDIzLTAyLTE1VDIwOjMxOjM4KzA4OjAwIiBzdEV2dDpzb2Z0d2FyZUFnZW50PSJBZG9iZSBQaG90b3Nob3AgMjEuMCAoTWFjaW50b3NoKSIgc3RFdnQ6Y2hhbmdlZD0iLyIvPiA8L3JkZjpTZXE+IDwveG1wTU06SGlzdG9yeT4gPC9yZGY6RGVzY3JpcHRpb24+IDwvcmRmOlJERj4gPC94OnhtcG1ldGE+IDw/eHBhY2tldCBlbmQ9InIiPz4Ic+GFAAALoUlEQVR4nO2dT2gbVx7Hf11ryEAsOlCbCGJRYTlrsY6JWVdEbOKt2NZUkJgYmlJDYjYQlhx66GEPe9jD5tBALgtd2LDsoZCSBhzSQIoTVsUJONsElE0CyjoBh0TCS31QsQsT5MAzI+M9eEaWxmNbmnnz50nfz0l+lub3pN985/d+b977zVvr6+sEABCTX/jdAQCAfSBgAAQGAgZAYCBgAAQGAgZAYCBgAAQGAgZAYCBgAAQGAgZAYCBgAAQGAgZAYCBgAAQGAgZAYCBgAAQGAgZAYCBgAAQGAgZAYCBgAAQGAgZAYCBgAAQGAgZAYCBgAAQGAgZAYCBgAAQGAgZAYCBgAAQGAgZAYCBgAAQGAgZAYCBgAAQGAgZAYCBgAAQm5JUhqUMqmNu0NS3O41iKoqhLPy8N2+0b2B34b5Pw3vDz8pvygN/9IPJQwDq9Na+L3I4Vov84PBZojLb134H4gbsLCwsx4++giNhrAQuNVRQKAnYjIWgcXbzViw5jrDh5avLClatX/uxfryBgO/Tu/hZPcRoJQQOk0+nZ2dlZok3/905NTU34LeC31tfXm/6Qg0jkzhDMxrEmTk98c+XrK39p5jP69w6cgJuNwO3qP6dIe6QXVKEQbfa9mDmeuTX93fTnXvajFicR2OmJzFMIQROVCMB/TaKtav2mi19v9lb2OBEJKeC2R+6UKZ1OE1WIWIWRLMt1rxmrb8vlcsRWWN0xIj0RGhoaaugYpeUS5R/n/fiqQEdRFFVV1SIF5KLTrgLmkjem02m6efNmw+9P9CVoYWWhru3MmTN0/vz5hj6fy+UofTTdsL0Wxre8f+nnpWFzCiLtkV5oq1q/H/2xJeDEwcQzqtA8q7CQLMuMKhSyes0Yk2VZZqqqKqXFUg+ZrlqxvphlpNotCqnLqrlLxVhf7FWtzd36xCN/Yozt/qYA0ur+GzkycjWXy6X4/3KW9FKFim7coWhkbsOWgOeezp1o9jNWX3B+fr5p21NTU3Tm9Jm6NqVLWX754uVHTR/MIbIse2svxMdem/jPyyGuG7YaGmUIt5SS10nMA68jsKgRv5Yg+a8V8DoHdpz8W5zEvuVDs3dmHZ+QF7+4SBe/uMipR67TUv5rBTwTsLamxS/941KGiP5FZP9KnEql6Mu/f1n9Ww7J587+4ewdHn0E2yOg/3y9T+0VthZy2KXwshBiFabJIXljgsN0Eli1mdstXkvxA/GK+71vnYUcdhHdf41i9nOkJ/LvH//34/s+dmlbuETg8N7wc8aYX8nNi0belMlkstO3pz9zuzMiAv/tjKIoqh92G4HnENqvyNSQXVZh3NMFpUuhiZMTxCrbTy4Z0YqI6PLly0SmWJM4mKBUKrXlvVaoy2pT952bpO381yjtIuBAI8sy9ylccz63G7N3ZmlhYaGubXx8vPGFHPdzbgo40Ljhv0ZROpUVv2zvhnC3kezixhDR89s6bXO53YqPQ/yi3CkHVsA8TwleM3WuzP65cQX3eiGHy7Sd/6yYPDV5wdx2/dr1P3lh2w5cBMyrMkFyOHkjn8/X5URB3qzudQR2axFEu/rPCj3SB+1Ow7a08aDMOW24kKPlUVfUTr/70Ayu5cDR/dEHI0dGrrp1/O0I7w0/lzqkgrRHauj2BLCmXf1XKpUifti1C/cIHN0ffWD8CM3+GDwmKqpDIGOHSIgqfm31EpF295+6rHaZ29ysheY0xeAq4JovWi05InVIhUY76XSiwlwtgYiKQweHnjk5pgU8l+jxOB432sR/O2Jx0XIzH3bse64C1ta0uJUTuvd1P1z6aekwT1tmBgcGb+v7RX9V2/7oyaOPedlwerXUayrVUkwcTDyzs73PDVrdf60I9xw4k8lkqf7K0qsuq11jx8Yu8bZVy/z8fMLk/OLExMSUmzabJRaLLZjbgiJeA/hPLLjnwNO3pz/r3tf9UK+6UC3Bmc1mM7xtGdRGDb0CRFFRFNXvkp9bqAR/1h/+2wLvFIfrkNyVE2rpp6XDVol/+O3w0/Lr8iGetqL7ow/0l71Em/dmRXpUR9BoV/9ZLOIopj9M35n5fuYcj+PrE4RcBezabaTx8fGbZBqKsRXWOfrR6D952Rg5MnJVn3SoW/2DoZdz2tF/eh2tOoHxEq9buDaku37j+h/De8MZxphRxaFItJHr8LKRz+eH9JdVG5GeyKLToZeXj1Bxy5bTwuci+88utc8+cgM31nO7mpOV35QH9BO0GOmJLPLeFG0sATRsUIgqHG14sZwu0Ev2BPdfW+D6bqTxk+Pfamta3E3HaGtafOL0xDdYsMGfdvHfJx9/8ldTUzF1NHWfpw03IrCnJXV2Q3+E4+9qmjwrF1NLQEvnNEPRj2cHBcV/drDwOfe+u2HD9hDaqzzRLTs7/XCKoqiswv5r9T85JFcYYzKFzLU16v/PKixEFfqlja7tuP+0Ufu7ibeV/ddOOM2B3Y5Sbh1/x3t7PG5hjJ0Y+1v2VtYQcDHWF3vFVlhnqVT6TW0/ht4bepzP54dqn3rH+1bNDrSk/5olOZy8YT4+7+GzW9geQgs+zHR9aFfz+xSJNiJG9N3ovdJi6bdW/ah7vwcL+OG/TbwYPrtlp21K6njF5KnJC+ZhYyNOShxMPCPjdkqFQtgO6Q2jH4x+ZWoKdAkdM06H0G7spBGioLYVNQ/Vqu7mSX+YrhYtl0PytvWP557OnQi/HX7KVpgh4qZ2Atmk7f03OzubJtNIxKsUhseFwraA3TixRC7JUrOPtireWF/sVTMrecqvy4f0HUvVhQ1Sh1Rw4ynw8F/dMk4DT6NvJBIpOT0GhtAckDqkglm8dp+4V5P7GiLuzd7KHo++G73HqbuANlIdi2WcXk4gcqk3DQE7YOT9ka+tNsErXcqyk/2zNVHLGIL2lhZLPV4u8Wx1pqamJsg03NfnIbyiaLW9tFkCtb3Nx9q/TVPzOJK6k8CpeA20NS1uGk5Xh9S8bPBGFP+F94afm5qKRN7vzeZRrjZQEdjP6vuN0v1O9xOpQypYiTfWF3vFU1jaqtav52TVSEz6BnupQyr4UXRuJ4Tw377uh1alY4Ocq+9EoAQcZKL7ow+kDqmgqqpCmxGRaENcxdTR1H0XnjJP5dflQ4lEYp5MW/uIqDeXy6WkDqngdrWMVmFwYPC2XrTO86GzxYQZFyDgXTDKnNZMeGy5TaKtafEf7v3we7f6MPd87ljmeOaWbm+LkLPZbAZC3pnkcPKGvhWyzn9yp7zixdDZasKMB4EScFByqLFjY5ekDqlgGipvqSapdCnLXg29pr+b/lxb0+L6Gmjz/dU6IScPJ6950SczQfGfGf321hBZXHy9mHU+ED9w19TELeoHSsBByKFGPxj9Sq//1EvbCJeIiuMnx7/1YyJJW9X6Y32xV7Q1GhPp/c0/zr/nx4x1EPxnZnBg8PZ24vXi4pscTt7QCwXUnUe8on6gZqGDwMzdmbPVDeYWTndjY3uzGLm2aZa6jkhPZNHzjgUMfXtjjCx+Hx7i7X6n+4ncKa/IIbli3NOVZZnJssxKpVKkpnpJ/Xm0zU4yO0DAFpjqI29EuQA+4UFb1fqTh5PX8o/zRlN1M4TfFxm/0StrmiesiPS90jxsqKqqkEq/bvZzPM+jQA2hg4QewapDraCJ1+DRw0efamtaXOlSlsnob0D76iVshZkfUlZNfXgVOtDXuTe63rtqn4dtA0TgbRAtggVxYYeflN+UB2pSDCLin/POfD9zroG5BtfsEwVTwIHfweIQfD+P0Fa1fmPFnFsTVrFYbKG0XFqxiPhE5P6cSaBqYgEAmgM5MAACAwEDIDAQMAACAwEDIDAQMAACAwEDIDAQMAACAwEDIDAQMAACAwEDIDAQMAACAwEDIDAQMAACAwEDIDAQMAACAwEDIDAQMAACAwEDIDAQMAACAwEDIDAQMAACAwEDIDAQMAACAwEDIDAQMAACAwEDIDAQMAACAwEDIDAQMAAC83+EA0pY1bVO3QAAAABJRU5ErkJggg==;" vertex="1" parent="1">
          <mxGeometry x="398" y="250" width="83.48" height="40" as="geometry" />
        </mxCell>
        <mxCell id="7JapQ6d2uV1ajBbxMQzk-6" value="" style="rounded=0;whiteSpace=wrap;html=1;strokeWidth=3;fillColor=#fff2cc;strokeColor=#d6b656;" vertex="1" parent="1">
          <mxGeometry x="349.74" y="270" width="180" height="40" as="geometry" />
        </mxCell>
        <mxCell id="7JapQ6d2uV1ajBbxMQzk-7" value="" style="shape=image;verticalLabelPosition=bottom;labelBackgroundColor=default;verticalAlign=top;aspect=fixed;imageAspect=0;image=data:image/png,iVBORw0KGgoAAAANSUhEUgAAAPAAAABzCAYAAACmcY/kAAAACXBIWXMAAAsTAAALEwEAmpwYAAAF92lUWHRYTUw6Y29tLmFkb2JlLnhtcAAAAAAAPD94cGFja2V0IGJlZ2luPSLvu78iIGlkPSJXNU0wTXBDZWhpSHpyZVN6TlRjemtjOWQiPz4gPHg6eG1wbWV0YSB4bWxuczp4PSJhZG9iZTpuczptZXRhLyIgeDp4bXB0az0iQWRvYmUgWE1QIENvcmUgNS42LWMxNDggNzkuMTY0MDM2LCAyMDE5LzA4LzEzLTAxOjA2OjU3ICAgICAgICAiPiA8cmRmOlJERiB4bWxuczpyZGY9Imh0dHA6Ly93d3cudzMub3JnLzE5OTkvMDIvMjItcmRmLXN5bnRheC1ucyMiPiA8cmRmOkRlc2NyaXB0aW9uIHJkZjphYm91dD0iIiB4bWxuczp4bXA9Imh0dHA6Ly9ucy5hZG9iZS5jb20veGFwLzEuMC8iIHhtbG5zOmRjPSJodHRwOi8vcHVybC5vcmcvZGMvZWxlbWVudHMvMS4xLyIgeG1sbnM6cGhvdG9zaG9wPSJodHRwOi8vbnMuYWRvYmUuY29tL3Bob3Rvc2hvcC8xLjAvIiB4bWxuczp4bXBNTT0iaHR0cDovL25zLmFkb2JlLmNvbS94YXAvMS4wL21tLyIgeG1sbnM6c3RFdnQ9Imh0dHA6Ly9ucy5hZG9iZS5jb20veGFwLzEuMC9zVHlwZS9SZXNvdXJjZUV2ZW50IyIgeG1wOkNyZWF0b3JUb29sPSJBZG9iZSBQaG90b3Nob3AgMjEuMCAoTWFjaW50b3NoKSIgeG1wOkNyZWF0ZURhdGU9IjIwMjMtMDItMTVUMjA6Mjk6NTkrMDg6MDAiIHhtcDpNb2RpZnlEYXRlPSIyMDIzLTAyLTE1VDIwOjMxOjM4KzA4OjAwIiB4bXA6TWV0YWRhdGFEYXRlPSIyMDIzLTAyLTE1VDIwOjMxOjM4KzA4OjAwIiBkYzpmb3JtYXQ9ImltYWdlL3BuZyIgcGhvdG9zaG9wOkNvbG9yTW9kZT0iMyIgcGhvdG9zaG9wOklDQ1Byb2ZpbGU9InNSR0IgSUVDNjE5NjYtMi4xIiB4bXBNTTpJbnN0YW5jZUlEPSJ4bXAuaWlkOmZhMjU3YzJjLTA5OGMtNGI3Yi1hNTc0LTNmMTUyNTc5NjljMiIgeG1wTU06RG9jdW1lbnRJRD0iYWRvYmU6ZG9jaWQ6cGhvdG9zaG9wOjcwYTcwNWI5LWFkOWUtMTk0Yy1hYmU5LTc0NGM3MThjZjg1OCIgeG1wTU06T3JpZ2luYWxEb2N1bWVudElEPSJ4bXAuZGlkOmYzNzc5NmJmLWZlMGUtNDlkYS05NDBlLTQ4MmQyY2I3YjYwMSI+IDx4bXBNTTpIaXN0b3J5PiA8cmRmOlNlcT4gPHJkZjpsaSBzdEV2dDphY3Rpb249ImNyZWF0ZWQiIHN0RXZ0Omluc3RhbmNlSUQ9InhtcC5paWQ6ZjM3Nzk2YmYtZmUwZS00OWRhLTk0MGUtNDgyZDJjYjdiNjAxIiBzdEV2dDp3aGVuPSIyMDIzLTAyLTE1VDIwOjI5OjU5KzA4OjAwIiBzdEV2dDpzb2Z0d2FyZUFnZW50PSJBZG9iZSBQaG90b3Nob3AgMjEuMCAoTWFjaW50b3NoKSIvPiA8cmRmOmxpIHN0RXZ0OmFjdGlvbj0ic2F2ZWQiIHN0RXZ0Omluc3RhbmNlSUQ9InhtcC5paWQ6ZmEyNTdjMmMtMDk4Yy00YjdiLWE1NzQtM2YxNTI1Nzk2OWMyIiBzdEV2dDp3aGVuPSIyMDIzLTAyLTE1VDIwOjMxOjM4KzA4OjAwIiBzdEV2dDpzb2Z0d2FyZUFnZW50PSJBZG9iZSBQaG90b3Nob3AgMjEuMCAoTWFjaW50b3NoKSIgc3RFdnQ6Y2hhbmdlZD0iLyIvPiA8L3JkZjpTZXE+IDwveG1wTU06SGlzdG9yeT4gPC9yZGY6RGVzY3JpcHRpb24+IDwvcmRmOlJERj4gPC94OnhtcG1ldGE+IDw/eHBhY2tldCBlbmQ9InIiPz4Ic+GFAAALoUlEQVR4nO2dT2gbVx7Hf11ryEAsOlCbCGJRYTlrsY6JWVdEbOKt2NZUkJgYmlJDYjYQlhx66GEPe9jD5tBALgtd2LDsoZCSBhzSQIoTVsUJONsElE0CyjoBh0TCS31QsQsT5MAzI+M9eEaWxmNbmnnz50nfz0l+lub3pN985/d+b977zVvr6+sEABCTX/jdAQCAfSBgAAQGAgZAYCBgAAQGAgZAYCBgAAQGAgZAYCBgAAQGAgZAYCBgAAQGAgZAYCBgAAQGAgZAYCBgAAQGAgZAYCBgAAQGAgZAYCBgAAQGAgZAYCBgAAQGAgZAYCBgAAQGAgZAYCBgAAQGAgZAYCBgAAQGAgZAYCBgAAQGAgZAYCBgAAQGAgZAYCBgAAQm5JUhqUMqmNu0NS3O41iKoqhLPy8N2+0b2B34b5Pw3vDz8pvygN/9IPJQwDq9Na+L3I4Vov84PBZojLb134H4gbsLCwsx4++giNhrAQuNVRQKAnYjIWgcXbzViw5jrDh5avLClatX/uxfryBgO/Tu/hZPcRoJQQOk0+nZ2dlZok3/905NTU34LeC31tfXm/6Qg0jkzhDMxrEmTk98c+XrK39p5jP69w6cgJuNwO3qP6dIe6QXVKEQbfa9mDmeuTX93fTnXvajFicR2OmJzFMIQROVCMB/TaKtav2mi19v9lb2OBEJKeC2R+6UKZ1OE1WIWIWRLMt1rxmrb8vlcsRWWN0xIj0RGhoaaugYpeUS5R/n/fiqQEdRFFVV1SIF5KLTrgLmkjem02m6efNmw+9P9CVoYWWhru3MmTN0/vz5hj6fy+UofTTdsL0Wxre8f+nnpWFzCiLtkV5oq1q/H/2xJeDEwcQzqtA8q7CQLMuMKhSyes0Yk2VZZqqqKqXFUg+ZrlqxvphlpNotCqnLqrlLxVhf7FWtzd36xCN/Yozt/qYA0ur+GzkycjWXy6X4/3KW9FKFim7coWhkbsOWgOeezp1o9jNWX3B+fr5p21NTU3Tm9Jm6NqVLWX754uVHTR/MIbIse2svxMdem/jPyyGuG7YaGmUIt5SS10nMA68jsKgRv5Yg+a8V8DoHdpz8W5zEvuVDs3dmHZ+QF7+4SBe/uMipR67TUv5rBTwTsLamxS/941KGiP5FZP9KnEql6Mu/f1n9Ww7J587+4ewdHn0E2yOg/3y9T+0VthZy2KXwshBiFabJIXljgsN0Eli1mdstXkvxA/GK+71vnYUcdhHdf41i9nOkJ/LvH//34/s+dmlbuETg8N7wc8aYX8nNi0belMlkstO3pz9zuzMiAv/tjKIoqh92G4HnENqvyNSQXVZh3NMFpUuhiZMTxCrbTy4Z0YqI6PLly0SmWJM4mKBUKrXlvVaoy2pT952bpO381yjtIuBAI8sy9ylccz63G7N3ZmlhYaGubXx8vPGFHPdzbgo40Ljhv0ZROpUVv2zvhnC3kezixhDR89s6bXO53YqPQ/yi3CkHVsA8TwleM3WuzP65cQX3eiGHy7Sd/6yYPDV5wdx2/dr1P3lh2w5cBMyrMkFyOHkjn8/X5URB3qzudQR2axFEu/rPCj3SB+1Ow7a08aDMOW24kKPlUVfUTr/70Ayu5cDR/dEHI0dGrrp1/O0I7w0/lzqkgrRHauj2BLCmXf1XKpUifti1C/cIHN0ffWD8CM3+GDwmKqpDIGOHSIgqfm31EpF295+6rHaZ29ysheY0xeAq4JovWi05InVIhUY76XSiwlwtgYiKQweHnjk5pgU8l+jxOB432sR/O2Jx0XIzH3bse64C1ta0uJUTuvd1P1z6aekwT1tmBgcGb+v7RX9V2/7oyaOPedlwerXUayrVUkwcTDyzs73PDVrdf60I9xw4k8lkqf7K0qsuq11jx8Yu8bZVy/z8fMLk/OLExMSUmzabJRaLLZjbgiJeA/hPLLjnwNO3pz/r3tf9UK+6UC3Bmc1mM7xtGdRGDb0CRFFRFNXvkp9bqAR/1h/+2wLvFIfrkNyVE2rpp6XDVol/+O3w0/Lr8iGetqL7ow/0l71Em/dmRXpUR9BoV/9ZLOIopj9M35n5fuYcj+PrE4RcBezabaTx8fGbZBqKsRXWOfrR6D952Rg5MnJVn3SoW/2DoZdz2tF/eh2tOoHxEq9buDaku37j+h/De8MZxphRxaFItJHr8LKRz+eH9JdVG5GeyKLToZeXj1Bxy5bTwuci+88utc8+cgM31nO7mpOV35QH9BO0GOmJLPLeFG0sATRsUIgqHG14sZwu0Ev2BPdfW+D6bqTxk+Pfamta3E3HaGtafOL0xDdYsMGfdvHfJx9/8ldTUzF1NHWfpw03IrCnJXV2Q3+E4+9qmjwrF1NLQEvnNEPRj2cHBcV/drDwOfe+u2HD9hDaqzzRLTs7/XCKoqiswv5r9T85JFcYYzKFzLU16v/PKixEFfqlja7tuP+0Ufu7ibeV/ddOOM2B3Y5Sbh1/x3t7PG5hjJ0Y+1v2VtYQcDHWF3vFVlhnqVT6TW0/ht4bepzP54dqn3rH+1bNDrSk/5olOZy8YT4+7+GzW9geQgs+zHR9aFfz+xSJNiJG9N3ovdJi6bdW/ah7vwcL+OG/TbwYPrtlp21K6njF5KnJC+ZhYyNOShxMPCPjdkqFQtgO6Q2jH4x+ZWoKdAkdM06H0G7spBGioLYVNQ/Vqu7mSX+YrhYtl0PytvWP557OnQi/HX7KVpgh4qZ2Atmk7f03OzubJtNIxKsUhseFwraA3TixRC7JUrOPtireWF/sVTMrecqvy4f0HUvVhQ1Sh1Rw4ynw8F/dMk4DT6NvJBIpOT0GhtAckDqkglm8dp+4V5P7GiLuzd7KHo++G73HqbuANlIdi2WcXk4gcqk3DQE7YOT9ka+tNsErXcqyk/2zNVHLGIL2lhZLPV4u8Wx1pqamJsg03NfnIbyiaLW9tFkCtb3Nx9q/TVPzOJK6k8CpeA20NS1uGk5Xh9S8bPBGFP+F94afm5qKRN7vzeZRrjZQEdjP6vuN0v1O9xOpQypYiTfWF3vFU1jaqtav52TVSEz6BnupQyr4UXRuJ4Tw377uh1alY4Ocq+9EoAQcZKL7ow+kDqmgqqpCmxGRaENcxdTR1H0XnjJP5dflQ4lEYp5MW/uIqDeXy6WkDqngdrWMVmFwYPC2XrTO86GzxYQZFyDgXTDKnNZMeGy5TaKtafEf7v3we7f6MPd87ljmeOaWbm+LkLPZbAZC3pnkcPKGvhWyzn9yp7zixdDZasKMB4EScFByqLFjY5ekDqlgGipvqSapdCnLXg29pr+b/lxb0+L6Gmjz/dU6IScPJ6950SczQfGfGf321hBZXHy9mHU+ED9w19TELeoHSsBByKFGPxj9Sq//1EvbCJeIiuMnx7/1YyJJW9X6Y32xV7Q1GhPp/c0/zr/nx4x1EPxnZnBg8PZ24vXi4pscTt7QCwXUnUe8on6gZqGDwMzdmbPVDeYWTndjY3uzGLm2aZa6jkhPZNHzjgUMfXtjjCx+Hx7i7X6n+4ncKa/IIbli3NOVZZnJssxKpVKkpnpJ/Xm0zU4yO0DAFpjqI29EuQA+4UFb1fqTh5PX8o/zRlN1M4TfFxm/0StrmiesiPS90jxsqKqqkEq/bvZzPM+jQA2hg4QewapDraCJ1+DRw0efamtaXOlSlsnob0D76iVshZkfUlZNfXgVOtDXuTe63rtqn4dtA0TgbRAtggVxYYeflN+UB2pSDCLin/POfD9zroG5BtfsEwVTwIHfweIQfD+P0Fa1fmPFnFsTVrFYbKG0XFqxiPhE5P6cSaBqYgEAmgM5MAACAwEDIDAQMAACAwEDIDAQMAACAwEDIDAQMAACAwEDIDAQMAACAwEDIDAQMAACAwEDIDAQMAACAwEDIDAQMAACAwEDIDAQMAACAwEDIDAQMAACAwEDIDAQMAACAwEDIDAQMAACAwEDIDAQMAACAwEDIDAQMAACAwEDIDAQMAAC83+EA0pY1bVO3QAAAABJRU5ErkJggg==;" vertex="1" parent="1">
          <mxGeometry x="349.74" y="270" width="83.48" height="40" as="geometry" />
        </mxCell>
        <mxCell id="7JapQ6d2uV1ajBbxMQzk-8" value="" style="shape=image;verticalLabelPosition=bottom;labelBackgroundColor=default;verticalAlign=top;aspect=fixed;imageAspect=0;image=data:image/png,iVBORw0KGgoAAAANSUhEUgAAAPAAAABzCAYAAACmcY/kAAAACXBIWXMAAAsTAAALEwEAmpwYAAAF92lUWHRYTUw6Y29tLmFkb2JlLnhtcAAAAAAAPD94cGFja2V0IGJlZ2luPSLvu78iIGlkPSJXNU0wTXBDZWhpSHpyZVN6TlRjemtjOWQiPz4gPHg6eG1wbWV0YSB4bWxuczp4PSJhZG9iZTpuczptZXRhLyIgeDp4bXB0az0iQWRvYmUgWE1QIENvcmUgNS42LWMxNDggNzkuMTY0MDM2LCAyMDE5LzA4LzEzLTAxOjA2OjU3ICAgICAgICAiPiA8cmRmOlJERiB4bWxuczpyZGY9Imh0dHA6Ly93d3cudzMub3JnLzE5OTkvMDIvMjItcmRmLXN5bnRheC1ucyMiPiA8cmRmOkRlc2NyaXB0aW9uIHJkZjphYm91dD0iIiB4bWxuczp4bXA9Imh0dHA6Ly9ucy5hZG9iZS5jb20veGFwLzEuMC8iIHhtbG5zOmRjPSJodHRwOi8vcHVybC5vcmcvZGMvZWxlbWVudHMvMS4xLyIgeG1sbnM6cGhvdG9zaG9wPSJodHRwOi8vbnMuYWRvYmUuY29tL3Bob3Rvc2hvcC8xLjAvIiB4bWxuczp4bXBNTT0iaHR0cDovL25zLmFkb2JlLmNvbS94YXAvMS4wL21tLyIgeG1sbnM6c3RFdnQ9Imh0dHA6Ly9ucy5hZG9iZS5jb20veGFwLzEuMC9zVHlwZS9SZXNvdXJjZUV2ZW50IyIgeG1wOkNyZWF0b3JUb29sPSJBZG9iZSBQaG90b3Nob3AgMjEuMCAoTWFjaW50b3NoKSIgeG1wOkNyZWF0ZURhdGU9IjIwMjMtMDItMTVUMjA6Mjk6NTkrMDg6MDAiIHhtcDpNb2RpZnlEYXRlPSIyMDIzLTAyLTE1VDIwOjMxOjM4KzA4OjAwIiB4bXA6TWV0YWRhdGFEYXRlPSIyMDIzLTAyLTE1VDIwOjMxOjM4KzA4OjAwIiBkYzpmb3JtYXQ9ImltYWdlL3BuZyIgcGhvdG9zaG9wOkNvbG9yTW9kZT0iMyIgcGhvdG9zaG9wOklDQ1Byb2ZpbGU9InNSR0IgSUVDNjE5NjYtMi4xIiB4bXBNTTpJbnN0YW5jZUlEPSJ4bXAuaWlkOmZhMjU3YzJjLTA5OGMtNGI3Yi1hNTc0LTNmMTUyNTc5NjljMiIgeG1wTU06RG9jdW1lbnRJRD0iYWRvYmU6ZG9jaWQ6cGhvdG9zaG9wOjcwYTcwNWI5LWFkOWUtMTk0Yy1hYmU5LTc0NGM3MThjZjg1OCIgeG1wTU06T3JpZ2luYWxEb2N1bWVudElEPSJ4bXAuZGlkOmYzNzc5NmJmLWZlMGUtNDlkYS05NDBlLTQ4MmQyY2I3YjYwMSI+IDx4bXBNTTpIaXN0b3J5PiA8cmRmOlNlcT4gPHJkZjpsaSBzdEV2dDphY3Rpb249ImNyZWF0ZWQiIHN0RXZ0Omluc3RhbmNlSUQ9InhtcC5paWQ6ZjM3Nzk2YmYtZmUwZS00OWRhLTk0MGUtNDgyZDJjYjdiNjAxIiBzdEV2dDp3aGVuPSIyMDIzLTAyLTE1VDIwOjI5OjU5KzA4OjAwIiBzdEV2dDpzb2Z0d2FyZUFnZW50PSJBZG9iZSBQaG90b3Nob3AgMjEuMCAoTWFjaW50b3NoKSIvPiA8cmRmOmxpIHN0RXZ0OmFjdGlvbj0ic2F2ZWQiIHN0RXZ0Omluc3RhbmNlSUQ9InhtcC5paWQ6ZmEyNTdjMmMtMDk4Yy00YjdiLWE1NzQtM2YxNTI1Nzk2OWMyIiBzdEV2dDp3aGVuPSIyMDIzLTAyLTE1VDIwOjMxOjM4KzA4OjAwIiBzdEV2dDpzb2Z0d2FyZUFnZW50PSJBZG9iZSBQaG90b3Nob3AgMjEuMCAoTWFjaW50b3NoKSIgc3RFdnQ6Y2hhbmdlZD0iLyIvPiA8L3JkZjpTZXE+IDwveG1wTU06SGlzdG9yeT4gPC9yZGY6RGVzY3JpcHRpb24+IDwvcmRmOlJERj4gPC94OnhtcG1ldGE+IDw/eHBhY2tldCBlbmQ9InIiPz4Ic+GFAAALoUlEQVR4nO2dT2gbVx7Hf11ryEAsOlCbCGJRYTlrsY6JWVdEbOKt2NZUkJgYmlJDYjYQlhx66GEPe9jD5tBALgtd2LDsoZCSBhzSQIoTVsUJONsElE0CyjoBh0TCS31QsQsT5MAzI+M9eEaWxmNbmnnz50nfz0l+lub3pN985/d+b977zVvr6+sEABCTX/jdAQCAfSBgAAQGAgZAYCBgAAQGAgZAYCBgAAQGAgZAYCBgAAQGAgZAYCBgAAQGAgZAYCBgAAQGAgZAYCBgAAQGAgZAYCBgAAQGAgZAYCBgAAQGAgZAYCBgAAQGAgZAYCBgAAQGAgZAYCBgAAQGAgZAYCBgAAQGAgZAYCBgAAQGAgZAYCBgAAQGAgZAYCBgAAQm5JUhqUMqmNu0NS3O41iKoqhLPy8N2+0b2B34b5Pw3vDz8pvygN/9IPJQwDq9Na+L3I4Vov84PBZojLb134H4gbsLCwsx4++giNhrAQuNVRQKAnYjIWgcXbzViw5jrDh5avLClatX/uxfryBgO/Tu/hZPcRoJQQOk0+nZ2dlZok3/905NTU34LeC31tfXm/6Qg0jkzhDMxrEmTk98c+XrK39p5jP69w6cgJuNwO3qP6dIe6QXVKEQbfa9mDmeuTX93fTnXvajFicR2OmJzFMIQROVCMB/TaKtav2mi19v9lb2OBEJKeC2R+6UKZ1OE1WIWIWRLMt1rxmrb8vlcsRWWN0xIj0RGhoaaugYpeUS5R/n/fiqQEdRFFVV1SIF5KLTrgLmkjem02m6efNmw+9P9CVoYWWhru3MmTN0/vz5hj6fy+UofTTdsL0Wxre8f+nnpWFzCiLtkV5oq1q/H/2xJeDEwcQzqtA8q7CQLMuMKhSyes0Yk2VZZqqqKqXFUg+ZrlqxvphlpNotCqnLqrlLxVhf7FWtzd36xCN/Yozt/qYA0ur+GzkycjWXy6X4/3KW9FKFim7coWhkbsOWgOeezp1o9jNWX3B+fr5p21NTU3Tm9Jm6NqVLWX754uVHTR/MIbIse2svxMdem/jPyyGuG7YaGmUIt5SS10nMA68jsKgRv5Yg+a8V8DoHdpz8W5zEvuVDs3dmHZ+QF7+4SBe/uMipR67TUv5rBTwTsLamxS/941KGiP5FZP9KnEql6Mu/f1n9Ww7J587+4ewdHn0E2yOg/3y9T+0VthZy2KXwshBiFabJIXljgsN0Eli1mdstXkvxA/GK+71vnYUcdhHdf41i9nOkJ/LvH//34/s+dmlbuETg8N7wc8aYX8nNi0belMlkstO3pz9zuzMiAv/tjKIoqh92G4HnENqvyNSQXVZh3NMFpUuhiZMTxCrbTy4Z0YqI6PLly0SmWJM4mKBUKrXlvVaoy2pT952bpO381yjtIuBAI8sy9ylccz63G7N3ZmlhYaGubXx8vPGFHPdzbgo40Ljhv0ZROpUVv2zvhnC3kezixhDR89s6bXO53YqPQ/yi3CkHVsA8TwleM3WuzP65cQX3eiGHy7Sd/6yYPDV5wdx2/dr1P3lh2w5cBMyrMkFyOHkjn8/X5URB3qzudQR2axFEu/rPCj3SB+1Ow7a08aDMOW24kKPlUVfUTr/70Ayu5cDR/dEHI0dGrrp1/O0I7w0/lzqkgrRHauj2BLCmXf1XKpUifti1C/cIHN0ffWD8CM3+GDwmKqpDIGOHSIgqfm31EpF295+6rHaZ29ysheY0xeAq4JovWi05InVIhUY76XSiwlwtgYiKQweHnjk5pgU8l+jxOB432sR/O2Jx0XIzH3bse64C1ta0uJUTuvd1P1z6aekwT1tmBgcGb+v7RX9V2/7oyaOPedlwerXUayrVUkwcTDyzs73PDVrdf60I9xw4k8lkqf7K0qsuq11jx8Yu8bZVy/z8fMLk/OLExMSUmzabJRaLLZjbgiJeA/hPLLjnwNO3pz/r3tf9UK+6UC3Bmc1mM7xtGdRGDb0CRFFRFNXvkp9bqAR/1h/+2wLvFIfrkNyVE2rpp6XDVol/+O3w0/Lr8iGetqL7ow/0l71Em/dmRXpUR9BoV/9ZLOIopj9M35n5fuYcj+PrE4RcBezabaTx8fGbZBqKsRXWOfrR6D952Rg5MnJVn3SoW/2DoZdz2tF/eh2tOoHxEq9buDaku37j+h/De8MZxphRxaFItJHr8LKRz+eH9JdVG5GeyKLToZeXj1Bxy5bTwuci+88utc8+cgM31nO7mpOV35QH9BO0GOmJLPLeFG0sATRsUIgqHG14sZwu0Ev2BPdfW+D6bqTxk+Pfamta3E3HaGtafOL0xDdYsMGfdvHfJx9/8ldTUzF1NHWfpw03IrCnJXV2Q3+E4+9qmjwrF1NLQEvnNEPRj2cHBcV/drDwOfe+u2HD9hDaqzzRLTs7/XCKoqiswv5r9T85JFcYYzKFzLU16v/PKixEFfqlja7tuP+0Ufu7ibeV/ddOOM2B3Y5Sbh1/x3t7PG5hjJ0Y+1v2VtYQcDHWF3vFVlhnqVT6TW0/ht4bepzP54dqn3rH+1bNDrSk/5olOZy8YT4+7+GzW9geQgs+zHR9aFfz+xSJNiJG9N3ovdJi6bdW/ah7vwcL+OG/TbwYPrtlp21K6njF5KnJC+ZhYyNOShxMPCPjdkqFQtgO6Q2jH4x+ZWoKdAkdM06H0G7spBGioLYVNQ/Vqu7mSX+YrhYtl0PytvWP557OnQi/HX7KVpgh4qZ2Atmk7f03OzubJtNIxKsUhseFwraA3TixRC7JUrOPtireWF/sVTMrecqvy4f0HUvVhQ1Sh1Rw4ynw8F/dMk4DT6NvJBIpOT0GhtAckDqkglm8dp+4V5P7GiLuzd7KHo++G73HqbuANlIdi2WcXk4gcqk3DQE7YOT9ka+tNsErXcqyk/2zNVHLGIL2lhZLPV4u8Wx1pqamJsg03NfnIbyiaLW9tFkCtb3Nx9q/TVPzOJK6k8CpeA20NS1uGk5Xh9S8bPBGFP+F94afm5qKRN7vzeZRrjZQEdjP6vuN0v1O9xOpQypYiTfWF3vFU1jaqtav52TVSEz6BnupQyr4UXRuJ4Tw377uh1alY4Ocq+9EoAQcZKL7ow+kDqmgqqpCmxGRaENcxdTR1H0XnjJP5dflQ4lEYp5MW/uIqDeXy6WkDqngdrWMVmFwYPC2XrTO86GzxYQZFyDgXTDKnNZMeGy5TaKtafEf7v3we7f6MPd87ljmeOaWbm+LkLPZbAZC3pnkcPKGvhWyzn9yp7zixdDZasKMB4EScFByqLFjY5ekDqlgGipvqSapdCnLXg29pr+b/lxb0+L6Gmjz/dU6IScPJ6950SczQfGfGf321hBZXHy9mHU+ED9w19TELeoHSsBByKFGPxj9Sq//1EvbCJeIiuMnx7/1YyJJW9X6Y32xV7Q1GhPp/c0/zr/nx4x1EPxnZnBg8PZ24vXi4pscTt7QCwXUnUe8on6gZqGDwMzdmbPVDeYWTndjY3uzGLm2aZa6jkhPZNHzjgUMfXtjjCx+Hx7i7X6n+4ncKa/IIbli3NOVZZnJssxKpVKkpnpJ/Xm0zU4yO0DAFpjqI29EuQA+4UFb1fqTh5PX8o/zRlN1M4TfFxm/0StrmiesiPS90jxsqKqqkEq/bvZzPM+jQA2hg4QewapDraCJ1+DRw0efamtaXOlSlsnob0D76iVshZkfUlZNfXgVOtDXuTe63rtqn4dtA0TgbRAtggVxYYeflN+UB2pSDCLin/POfD9zroG5BtfsEwVTwIHfweIQfD+P0Fa1fmPFnFsTVrFYbKG0XFqxiPhE5P6cSaBqYgEAmgM5MAACAwEDIDAQMAACAwEDIDAQMAACAwEDIDAQMAACAwEDIDAQMAACAwEDIDAQMAACAwEDIDAQMAACAwEDIDAQMAACAwEDIDAQMAACAwEDIDAQMAACAwEDIDAQMAACAwEDIDAQMAACAwEDIDAQMAACAwEDIDAQMAACAwEDIDAQMAAC83+EA0pY1bVO3QAAAABJRU5ErkJggg==;" vertex="1" parent="1">
          <mxGeometry x="427.74" y="270" width="83.48" height="40" as="geometry" />
        </mxCell>
        <mxCell id="7JapQ6d2uV1ajBbxMQzk-12" value="&lt;font style=&quot;font-size: 20px;&quot;&gt;1&lt;/font&gt;" style="text;html=1;strokeColor=none;fillColor=none;align=center;verticalAlign=middle;whiteSpace=wrap;rounded=0;strokeWidth=6;spacingLeft=0;" vertex="1" parent="1">
          <mxGeometry x="486" y="275" width="60" height="30" as="geometry" />
        </mxCell>
        <mxCell id="7JapQ6d2uV1ajBbxMQzk-13" value="" style="rounded=0;whiteSpace=wrap;html=1;strokeWidth=3;fillColor=#dae8fc;strokeColor=#6c8ebf;" vertex="1" parent="1">
          <mxGeometry x="371.35" y="290" width="180" height="40" as="geometry" />
        </mxCell>
        <mxCell id="7JapQ6d2uV1ajBbxMQzk-14" value="" style="shape=image;verticalLabelPosition=bottom;labelBackgroundColor=default;verticalAlign=top;aspect=fixed;imageAspect=0;image=data:image/png,iVBORw0KGgoAAAANSUhEUgAAAPAAAABzCAYAAACmcY/kAAAACXBIWXMAAAsTAAALEwEAmpwYAAAF92lUWHRYTUw6Y29tLmFkb2JlLnhtcAAAAAAAPD94cGFja2V0IGJlZ2luPSLvu78iIGlkPSJXNU0wTXBDZWhpSHpyZVN6TlRjemtjOWQiPz4gPHg6eG1wbWV0YSB4bWxuczp4PSJhZG9iZTpuczptZXRhLyIgeDp4bXB0az0iQWRvYmUgWE1QIENvcmUgNS42LWMxNDggNzkuMTY0MDM2LCAyMDE5LzA4LzEzLTAxOjA2OjU3ICAgICAgICAiPiA8cmRmOlJERiB4bWxuczpyZGY9Imh0dHA6Ly93d3cudzMub3JnLzE5OTkvMDIvMjItcmRmLXN5bnRheC1ucyMiPiA8cmRmOkRlc2NyaXB0aW9uIHJkZjphYm91dD0iIiB4bWxuczp4bXA9Imh0dHA6Ly9ucy5hZG9iZS5jb20veGFwLzEuMC8iIHhtbG5zOmRjPSJodHRwOi8vcHVybC5vcmcvZGMvZWxlbWVudHMvMS4xLyIgeG1sbnM6cGhvdG9zaG9wPSJodHRwOi8vbnMuYWRvYmUuY29tL3Bob3Rvc2hvcC8xLjAvIiB4bWxuczp4bXBNTT0iaHR0cDovL25zLmFkb2JlLmNvbS94YXAvMS4wL21tLyIgeG1sbnM6c3RFdnQ9Imh0dHA6Ly9ucy5hZG9iZS5jb20veGFwLzEuMC9zVHlwZS9SZXNvdXJjZUV2ZW50IyIgeG1wOkNyZWF0b3JUb29sPSJBZG9iZSBQaG90b3Nob3AgMjEuMCAoTWFjaW50b3NoKSIgeG1wOkNyZWF0ZURhdGU9IjIwMjMtMDItMTVUMjA6Mjk6NTkrMDg6MDAiIHhtcDpNb2RpZnlEYXRlPSIyMDIzLTAyLTE1VDIwOjMxOjM4KzA4OjAwIiB4bXA6TWV0YWRhdGFEYXRlPSIyMDIzLTAyLTE1VDIwOjMxOjM4KzA4OjAwIiBkYzpmb3JtYXQ9ImltYWdlL3BuZyIgcGhvdG9zaG9wOkNvbG9yTW9kZT0iMyIgcGhvdG9zaG9wOklDQ1Byb2ZpbGU9InNSR0IgSUVDNjE5NjYtMi4xIiB4bXBNTTpJbnN0YW5jZUlEPSJ4bXAuaWlkOmZhMjU3YzJjLTA5OGMtNGI3Yi1hNTc0LTNmMTUyNTc5NjljMiIgeG1wTU06RG9jdW1lbnRJRD0iYWRvYmU6ZG9jaWQ6cGhvdG9zaG9wOjcwYTcwNWI5LWFkOWUtMTk0Yy1hYmU5LTc0NGM3MThjZjg1OCIgeG1wTU06T3JpZ2luYWxEb2N1bWVudElEPSJ4bXAuZGlkOmYzNzc5NmJmLWZlMGUtNDlkYS05NDBlLTQ4MmQyY2I3YjYwMSI+IDx4bXBNTTpIaXN0b3J5PiA8cmRmOlNlcT4gPHJkZjpsaSBzdEV2dDphY3Rpb249ImNyZWF0ZWQiIHN0RXZ0Omluc3RhbmNlSUQ9InhtcC5paWQ6ZjM3Nzk2YmYtZmUwZS00OWRhLTk0MGUtNDgyZDJjYjdiNjAxIiBzdEV2dDp3aGVuPSIyMDIzLTAyLTE1VDIwOjI5OjU5KzA4OjAwIiBzdEV2dDpzb2Z0d2FyZUFnZW50PSJBZG9iZSBQaG90b3Nob3AgMjEuMCAoTWFjaW50b3NoKSIvPiA8cmRmOmxpIHN0RXZ0OmFjdGlvbj0ic2F2ZWQiIHN0RXZ0Omluc3RhbmNlSUQ9InhtcC5paWQ6ZmEyNTdjMmMtMDk4Yy00YjdiLWE1NzQtM2YxNTI1Nzk2OWMyIiBzdEV2dDp3aGVuPSIyMDIzLTAyLTE1VDIwOjMxOjM4KzA4OjAwIiBzdEV2dDpzb2Z0d2FyZUFnZW50PSJBZG9iZSBQaG90b3Nob3AgMjEuMCAoTWFjaW50b3NoKSIgc3RFdnQ6Y2hhbmdlZD0iLyIvPiA8L3JkZjpTZXE+IDwveG1wTU06SGlzdG9yeT4gPC9yZGY6RGVzY3JpcHRpb24+IDwvcmRmOlJERj4gPC94OnhtcG1ldGE+IDw/eHBhY2tldCBlbmQ9InIiPz4Ic+GFAAALoUlEQVR4nO2dT2gbVx7Hf11ryEAsOlCbCGJRYTlrsY6JWVdEbOKt2NZUkJgYmlJDYjYQlhx66GEPe9jD5tBALgtd2LDsoZCSBhzSQIoTVsUJONsElE0CyjoBh0TCS31QsQsT5MAzI+M9eEaWxmNbmnnz50nfz0l+lub3pN985/d+b977zVvr6+sEABCTX/jdAQCAfSBgAAQGAgZAYCBgAAQGAgZAYCBgAAQGAgZAYCBgAAQGAgZAYCBgAAQGAgZAYCBgAAQGAgZAYCBgAAQGAgZAYCBgAAQGAgZAYCBgAAQGAgZAYCBgAAQGAgZAYCBgAAQGAgZAYCBgAAQGAgZAYCBgAAQGAgZAYCBgAAQGAgZAYCBgAAQGAgZAYCBgAAQm5JUhqUMqmNu0NS3O41iKoqhLPy8N2+0b2B34b5Pw3vDz8pvygN/9IPJQwDq9Na+L3I4Vov84PBZojLb134H4gbsLCwsx4++giNhrAQuNVRQKAnYjIWgcXbzViw5jrDh5avLClatX/uxfryBgO/Tu/hZPcRoJQQOk0+nZ2dlZok3/905NTU34LeC31tfXm/6Qg0jkzhDMxrEmTk98c+XrK39p5jP69w6cgJuNwO3qP6dIe6QXVKEQbfa9mDmeuTX93fTnXvajFicR2OmJzFMIQROVCMB/TaKtav2mi19v9lb2OBEJKeC2R+6UKZ1OE1WIWIWRLMt1rxmrb8vlcsRWWN0xIj0RGhoaaugYpeUS5R/n/fiqQEdRFFVV1SIF5KLTrgLmkjem02m6efNmw+9P9CVoYWWhru3MmTN0/vz5hj6fy+UofTTdsL0Wxre8f+nnpWFzCiLtkV5oq1q/H/2xJeDEwcQzqtA8q7CQLMuMKhSyes0Yk2VZZqqqKqXFUg+ZrlqxvphlpNotCqnLqrlLxVhf7FWtzd36xCN/Yozt/qYA0ur+GzkycjWXy6X4/3KW9FKFim7coWhkbsOWgOeezp1o9jNWX3B+fr5p21NTU3Tm9Jm6NqVLWX754uVHTR/MIbIse2svxMdem/jPyyGuG7YaGmUIt5SS10nMA68jsKgRv5Yg+a8V8DoHdpz8W5zEvuVDs3dmHZ+QF7+4SBe/uMipR67TUv5rBTwTsLamxS/941KGiP5FZP9KnEql6Mu/f1n9Ww7J587+4ewdHn0E2yOg/3y9T+0VthZy2KXwshBiFabJIXljgsN0Eli1mdstXkvxA/GK+71vnYUcdhHdf41i9nOkJ/LvH//34/s+dmlbuETg8N7wc8aYX8nNi0belMlkstO3pz9zuzMiAv/tjKIoqh92G4HnENqvyNSQXVZh3NMFpUuhiZMTxCrbTy4Z0YqI6PLly0SmWJM4mKBUKrXlvVaoy2pT952bpO381yjtIuBAI8sy9ylccz63G7N3ZmlhYaGubXx8vPGFHPdzbgo40Ljhv0ZROpUVv2zvhnC3kezixhDR89s6bXO53YqPQ/yi3CkHVsA8TwleM3WuzP65cQX3eiGHy7Sd/6yYPDV5wdx2/dr1P3lh2w5cBMyrMkFyOHkjn8/X5URB3qzudQR2axFEu/rPCj3SB+1Ow7a08aDMOW24kKPlUVfUTr/70Ayu5cDR/dEHI0dGrrp1/O0I7w0/lzqkgrRHauj2BLCmXf1XKpUifti1C/cIHN0ffWD8CM3+GDwmKqpDIGOHSIgqfm31EpF295+6rHaZ29ysheY0xeAq4JovWi05InVIhUY76XSiwlwtgYiKQweHnjk5pgU8l+jxOB432sR/O2Jx0XIzH3bse64C1ta0uJUTuvd1P1z6aekwT1tmBgcGb+v7RX9V2/7oyaOPedlwerXUayrVUkwcTDyzs73PDVrdf60I9xw4k8lkqf7K0qsuq11jx8Yu8bZVy/z8fMLk/OLExMSUmzabJRaLLZjbgiJeA/hPLLjnwNO3pz/r3tf9UK+6UC3Bmc1mM7xtGdRGDb0CRFFRFNXvkp9bqAR/1h/+2wLvFIfrkNyVE2rpp6XDVol/+O3w0/Lr8iGetqL7ow/0l71Em/dmRXpUR9BoV/9ZLOIopj9M35n5fuYcj+PrE4RcBezabaTx8fGbZBqKsRXWOfrR6D952Rg5MnJVn3SoW/2DoZdz2tF/eh2tOoHxEq9buDaku37j+h/De8MZxphRxaFItJHr8LKRz+eH9JdVG5GeyKLToZeXj1Bxy5bTwuci+88utc8+cgM31nO7mpOV35QH9BO0GOmJLPLeFG0sATRsUIgqHG14sZwu0Ev2BPdfW+D6bqTxk+Pfamta3E3HaGtafOL0xDdYsMGfdvHfJx9/8ldTUzF1NHWfpw03IrCnJXV2Q3+E4+9qmjwrF1NLQEvnNEPRj2cHBcV/drDwOfe+u2HD9hDaqzzRLTs7/XCKoqiswv5r9T85JFcYYzKFzLU16v/PKixEFfqlja7tuP+0Ufu7ibeV/ddOOM2B3Y5Sbh1/x3t7PG5hjJ0Y+1v2VtYQcDHWF3vFVlhnqVT6TW0/ht4bepzP54dqn3rH+1bNDrSk/5olOZy8YT4+7+GzW9geQgs+zHR9aFfz+xSJNiJG9N3ovdJi6bdW/ah7vwcL+OG/TbwYPrtlp21K6njF5KnJC+ZhYyNOShxMPCPjdkqFQtgO6Q2jH4x+ZWoKdAkdM06H0G7spBGioLYVNQ/Vqu7mSX+YrhYtl0PytvWP557OnQi/HX7KVpgh4qZ2Atmk7f03OzubJtNIxKsUhseFwraA3TixRC7JUrOPtireWF/sVTMrecqvy4f0HUvVhQ1Sh1Rw4ynw8F/dMk4DT6NvJBIpOT0GhtAckDqkglm8dp+4V5P7GiLuzd7KHo++G73HqbuANlIdi2WcXk4gcqk3DQE7YOT9ka+tNsErXcqyk/2zNVHLGIL2lhZLPV4u8Wx1pqamJsg03NfnIbyiaLW9tFkCtb3Nx9q/TVPzOJK6k8CpeA20NS1uGk5Xh9S8bPBGFP+F94afm5qKRN7vzeZRrjZQEdjP6vuN0v1O9xOpQypYiTfWF3vFU1jaqtav52TVSEz6BnupQyr4UXRuJ4Tw377uh1alY4Ocq+9EoAQcZKL7ow+kDqmgqqpCmxGRaENcxdTR1H0XnjJP5dflQ4lEYp5MW/uIqDeXy6WkDqngdrWMVmFwYPC2XrTO86GzxYQZFyDgXTDKnNZMeGy5TaKtafEf7v3we7f6MPd87ljmeOaWbm+LkLPZbAZC3pnkcPKGvhWyzn9yp7zixdDZasKMB4EScFByqLFjY5ekDqlgGipvqSapdCnLXg29pr+b/lxb0+L6Gmjz/dU6IScPJ6950SczQfGfGf321hBZXHy9mHU+ED9w19TELeoHSsBByKFGPxj9Sq//1EvbCJeIiuMnx7/1YyJJW9X6Y32xV7Q1GhPp/c0/zr/nx4x1EPxnZnBg8PZ24vXi4pscTt7QCwXUnUe8on6gZqGDwMzdmbPVDeYWTndjY3uzGLm2aZa6jkhPZNHzjgUMfXtjjCx+Hx7i7X6n+4ncKa/IIbli3NOVZZnJssxKpVKkpnpJ/Xm0zU4yO0DAFpjqI29EuQA+4UFb1fqTh5PX8o/zRlN1M4TfFxm/0StrmiesiPS90jxsqKqqkEq/bvZzPM+jQA2hg4QewapDraCJ1+DRw0efamtaXOlSlsnob0D76iVshZkfUlZNfXgVOtDXuTe63rtqn4dtA0TgbRAtggVxYYeflN+UB2pSDCLin/POfD9zroG5BtfsEwVTwIHfweIQfD+P0Fa1fmPFnFsTVrFYbKG0XFqxiPhE5P6cSaBqYgEAmgM5MAACAwEDIDAQMAACAwEDIDAQMAACAwEDIDAQMAACAwEDIDAQMAACAwEDIDAQMAACAwEDIDAQMAACAwEDIDAQMAACAwEDIDAQMAACAwEDIDAQMAACAwEDIDAQMAACAwEDIDAQMAACAwEDIDAQMAACAwEDIDAQMAACAwEDIDAQMAAC83+EA0pY1bVO3QAAAABJRU5ErkJggg==;" vertex="1" parent="1">
          <mxGeometry x="371.35" y="290" width="83.48" height="40" as="geometry" />
        </mxCell>
        <mxCell id="7JapQ6d2uV1ajBbxMQzk-15" value="" style="shape=image;verticalLabelPosition=bottom;labelBackgroundColor=default;verticalAlign=top;aspect=fixed;imageAspect=0;image=data:image/png,iVBORw0KGgoAAAANSUhEUgAAAPAAAABzCAYAAACmcY/kAAAACXBIWXMAAAsTAAALEwEAmpwYAAAF92lUWHRYTUw6Y29tLmFkb2JlLnhtcAAAAAAAPD94cGFja2V0IGJlZ2luPSLvu78iIGlkPSJXNU0wTXBDZWhpSHpyZVN6TlRjemtjOWQiPz4gPHg6eG1wbWV0YSB4bWxuczp4PSJhZG9iZTpuczptZXRhLyIgeDp4bXB0az0iQWRvYmUgWE1QIENvcmUgNS42LWMxNDggNzkuMTY0MDM2LCAyMDE5LzA4LzEzLTAxOjA2OjU3ICAgICAgICAiPiA8cmRmOlJERiB4bWxuczpyZGY9Imh0dHA6Ly93d3cudzMub3JnLzE5OTkvMDIvMjItcmRmLXN5bnRheC1ucyMiPiA8cmRmOkRlc2NyaXB0aW9uIHJkZjphYm91dD0iIiB4bWxuczp4bXA9Imh0dHA6Ly9ucy5hZG9iZS5jb20veGFwLzEuMC8iIHhtbG5zOmRjPSJodHRwOi8vcHVybC5vcmcvZGMvZWxlbWVudHMvMS4xLyIgeG1sbnM6cGhvdG9zaG9wPSJodHRwOi8vbnMuYWRvYmUuY29tL3Bob3Rvc2hvcC8xLjAvIiB4bWxuczp4bXBNTT0iaHR0cDovL25zLmFkb2JlLmNvbS94YXAvMS4wL21tLyIgeG1sbnM6c3RFdnQ9Imh0dHA6Ly9ucy5hZG9iZS5jb20veGFwLzEuMC9zVHlwZS9SZXNvdXJjZUV2ZW50IyIgeG1wOkNyZWF0b3JUb29sPSJBZG9iZSBQaG90b3Nob3AgMjEuMCAoTWFjaW50b3NoKSIgeG1wOkNyZWF0ZURhdGU9IjIwMjMtMDItMTVUMjA6Mjk6NTkrMDg6MDAiIHhtcDpNb2RpZnlEYXRlPSIyMDIzLTAyLTE1VDIwOjMxOjM4KzA4OjAwIiB4bXA6TWV0YWRhdGFEYXRlPSIyMDIzLTAyLTE1VDIwOjMxOjM4KzA4OjAwIiBkYzpmb3JtYXQ9ImltYWdlL3BuZyIgcGhvdG9zaG9wOkNvbG9yTW9kZT0iMyIgcGhvdG9zaG9wOklDQ1Byb2ZpbGU9InNSR0IgSUVDNjE5NjYtMi4xIiB4bXBNTTpJbnN0YW5jZUlEPSJ4bXAuaWlkOmZhMjU3YzJjLTA5OGMtNGI3Yi1hNTc0LTNmMTUyNTc5NjljMiIgeG1wTU06RG9jdW1lbnRJRD0iYWRvYmU6ZG9jaWQ6cGhvdG9zaG9wOjcwYTcwNWI5LWFkOWUtMTk0Yy1hYmU5LTc0NGM3MThjZjg1OCIgeG1wTU06T3JpZ2luYWxEb2N1bWVudElEPSJ4bXAuZGlkOmYzNzc5NmJmLWZlMGUtNDlkYS05NDBlLTQ4MmQyY2I3YjYwMSI+IDx4bXBNTTpIaXN0b3J5PiA8cmRmOlNlcT4gPHJkZjpsaSBzdEV2dDphY3Rpb249ImNyZWF0ZWQiIHN0RXZ0Omluc3RhbmNlSUQ9InhtcC5paWQ6ZjM3Nzk2YmYtZmUwZS00OWRhLTk0MGUtNDgyZDJjYjdiNjAxIiBzdEV2dDp3aGVuPSIyMDIzLTAyLTE1VDIwOjI5OjU5KzA4OjAwIiBzdEV2dDpzb2Z0d2FyZUFnZW50PSJBZG9iZSBQaG90b3Nob3AgMjEuMCAoTWFjaW50b3NoKSIvPiA8cmRmOmxpIHN0RXZ0OmFjdGlvbj0ic2F2ZWQiIHN0RXZ0Omluc3RhbmNlSUQ9InhtcC5paWQ6ZmEyNTdjMmMtMDk4Yy00YjdiLWE1NzQtM2YxNTI1Nzk2OWMyIiBzdEV2dDp3aGVuPSIyMDIzLTAyLTE1VDIwOjMxOjM4KzA4OjAwIiBzdEV2dDpzb2Z0d2FyZUFnZW50PSJBZG9iZSBQaG90b3Nob3AgMjEuMCAoTWFjaW50b3NoKSIgc3RFdnQ6Y2hhbmdlZD0iLyIvPiA8L3JkZjpTZXE+IDwveG1wTU06SGlzdG9yeT4gPC9yZGY6RGVzY3JpcHRpb24+IDwvcmRmOlJERj4gPC94OnhtcG1ldGE+IDw/eHBhY2tldCBlbmQ9InIiPz4Ic+GFAAALoUlEQVR4nO2dT2gbVx7Hf11ryEAsOlCbCGJRYTlrsY6JWVdEbOKt2NZUkJgYmlJDYjYQlhx66GEPe9jD5tBALgtd2LDsoZCSBhzSQIoTVsUJONsElE0CyjoBh0TCS31QsQsT5MAzI+M9eEaWxmNbmnnz50nfz0l+lub3pN985/d+b977zVvr6+sEABCTX/jdAQCAfSBgAAQGAgZAYCBgAAQGAgZAYCBgAAQGAgZAYCBgAAQGAgZAYCBgAAQGAgZAYCBgAAQGAgZAYCBgAAQGAgZAYCBgAAQGAgZAYCBgAAQGAgZAYCBgAAQGAgZAYCBgAAQGAgZAYCBgAAQGAgZAYCBgAAQGAgZAYCBgAAQGAgZAYCBgAAQGAgZAYCBgAAQm5JUhqUMqmNu0NS3O41iKoqhLPy8N2+0b2B34b5Pw3vDz8pvygN/9IPJQwDq9Na+L3I4Vov84PBZojLb134H4gbsLCwsx4++giNhrAQuNVRQKAnYjIWgcXbzViw5jrDh5avLClatX/uxfryBgO/Tu/hZPcRoJQQOk0+nZ2dlZok3/905NTU34LeC31tfXm/6Qg0jkzhDMxrEmTk98c+XrK39p5jP69w6cgJuNwO3qP6dIe6QXVKEQbfa9mDmeuTX93fTnXvajFicR2OmJzFMIQROVCMB/TaKtav2mi19v9lb2OBEJKeC2R+6UKZ1OE1WIWIWRLMt1rxmrb8vlcsRWWN0xIj0RGhoaaugYpeUS5R/n/fiqQEdRFFVV1SIF5KLTrgLmkjem02m6efNmw+9P9CVoYWWhru3MmTN0/vz5hj6fy+UofTTdsL0Wxre8f+nnpWFzCiLtkV5oq1q/H/2xJeDEwcQzqtA8q7CQLMuMKhSyes0Yk2VZZqqqKqXFUg+ZrlqxvphlpNotCqnLqrlLxVhf7FWtzd36xCN/Yozt/qYA0ur+GzkycjWXy6X4/3KW9FKFim7coWhkbsOWgOeezp1o9jNWX3B+fr5p21NTU3Tm9Jm6NqVLWX754uVHTR/MIbIse2svxMdem/jPyyGuG7YaGmUIt5SS10nMA68jsKgRv5Yg+a8V8DoHdpz8W5zEvuVDs3dmHZ+QF7+4SBe/uMipR67TUv5rBTwTsLamxS/941KGiP5FZP9KnEql6Mu/f1n9Ww7J587+4ewdHn0E2yOg/3y9T+0VthZy2KXwshBiFabJIXljgsN0Eli1mdstXkvxA/GK+71vnYUcdhHdf41i9nOkJ/LvH//34/s+dmlbuETg8N7wc8aYX8nNi0belMlkstO3pz9zuzMiAv/tjKIoqh92G4HnENqvyNSQXVZh3NMFpUuhiZMTxCrbTy4Z0YqI6PLly0SmWJM4mKBUKrXlvVaoy2pT952bpO381yjtIuBAI8sy9ylccz63G7N3ZmlhYaGubXx8vPGFHPdzbgo40Ljhv0ZROpUVv2zvhnC3kezixhDR89s6bXO53YqPQ/yi3CkHVsA8TwleM3WuzP65cQX3eiGHy7Sd/6yYPDV5wdx2/dr1P3lh2w5cBMyrMkFyOHkjn8/X5URB3qzudQR2axFEu/rPCj3SB+1Ow7a08aDMOW24kKPlUVfUTr/70Ayu5cDR/dEHI0dGrrp1/O0I7w0/lzqkgrRHauj2BLCmXf1XKpUifti1C/cIHN0ffWD8CM3+GDwmKqpDIGOHSIgqfm31EpF295+6rHaZ29ysheY0xeAq4JovWi05InVIhUY76XSiwlwtgYiKQweHnjk5pgU8l+jxOB432sR/O2Jx0XIzH3bse64C1ta0uJUTuvd1P1z6aekwT1tmBgcGb+v7RX9V2/7oyaOPedlwerXUayrVUkwcTDyzs73PDVrdf60I9xw4k8lkqf7K0qsuq11jx8Yu8bZVy/z8fMLk/OLExMSUmzabJRaLLZjbgiJeA/hPLLjnwNO3pz/r3tf9UK+6UC3Bmc1mM7xtGdRGDb0CRFFRFNXvkp9bqAR/1h/+2wLvFIfrkNyVE2rpp6XDVol/+O3w0/Lr8iGetqL7ow/0l71Em/dmRXpUR9BoV/9ZLOIopj9M35n5fuYcj+PrE4RcBezabaTx8fGbZBqKsRXWOfrR6D952Rg5MnJVn3SoW/2DoZdz2tF/eh2tOoHxEq9buDaku37j+h/De8MZxphRxaFItJHr8LKRz+eH9JdVG5GeyKLToZeXj1Bxy5bTwuci+88utc8+cgM31nO7mpOV35QH9BO0GOmJLPLeFG0sATRsUIgqHG14sZwu0Ev2BPdfW+D6bqTxk+Pfamta3E3HaGtafOL0xDdYsMGfdvHfJx9/8ldTUzF1NHWfpw03IrCnJXV2Q3+E4+9qmjwrF1NLQEvnNEPRj2cHBcV/drDwOfe+u2HD9hDaqzzRLTs7/XCKoqiswv5r9T85JFcYYzKFzLU16v/PKixEFfqlja7tuP+0Ufu7ibeV/ddOOM2B3Y5Sbh1/x3t7PG5hjJ0Y+1v2VtYQcDHWF3vFVlhnqVT6TW0/ht4bepzP54dqn3rH+1bNDrSk/5olOZy8YT4+7+GzW9geQgs+zHR9aFfz+xSJNiJG9N3ovdJi6bdW/ah7vwcL+OG/TbwYPrtlp21K6njF5KnJC+ZhYyNOShxMPCPjdkqFQtgO6Q2jH4x+ZWoKdAkdM06H0G7spBGioLYVNQ/Vqu7mSX+YrhYtl0PytvWP557OnQi/HX7KVpgh4qZ2Atmk7f03OzubJtNIxKsUhseFwraA3TixRC7JUrOPtireWF/sVTMrecqvy4f0HUvVhQ1Sh1Rw4ynw8F/dMk4DT6NvJBIpOT0GhtAckDqkglm8dp+4V5P7GiLuzd7KHo++G73HqbuANlIdi2WcXk4gcqk3DQE7YOT9ka+tNsErXcqyk/2zNVHLGIL2lhZLPV4u8Wx1pqamJsg03NfnIbyiaLW9tFkCtb3Nx9q/TVPzOJK6k8CpeA20NS1uGk5Xh9S8bPBGFP+F94afm5qKRN7vzeZRrjZQEdjP6vuN0v1O9xOpQypYiTfWF3vFU1jaqtav52TVSEz6BnupQyr4UXRuJ4Tw377uh1alY4Ocq+9EoAQcZKL7ow+kDqmgqqpCmxGRaENcxdTR1H0XnjJP5dflQ4lEYp5MW/uIqDeXy6WkDqngdrWMVmFwYPC2XrTO86GzxYQZFyDgXTDKnNZMeGy5TaKtafEf7v3we7f6MPd87ljmeOaWbm+LkLPZbAZC3pnkcPKGvhWyzn9yp7zixdDZasKMB4EScFByqLFjY5ekDqlgGipvqSapdCnLXg29pr+b/lxb0+L6Gmjz/dU6IScPJ6950SczQfGfGf321hBZXHy9mHU+ED9w19TELeoHSsBByKFGPxj9Sq//1EvbCJeIiuMnx7/1YyJJW9X6Y32xV7Q1GhPp/c0/zr/nx4x1EPxnZnBg8PZ24vXi4pscTt7QCwXUnUe8on6gZqGDwMzdmbPVDeYWTndjY3uzGLm2aZa6jkhPZNHzjgUMfXtjjCx+Hx7i7X6n+4ncKa/IIbli3NOVZZnJssxKpVKkpnpJ/Xm0zU4yO0DAFpjqI29EuQA+4UFb1fqTh5PX8o/zRlN1M4TfFxm/0StrmiesiPS90jxsqKqqkEq/bvZzPM+jQA2hg4QewapDraCJ1+DRw0efamtaXOlSlsnob0D76iVshZkfUlZNfXgVOtDXuTe63rtqn4dtA0TgbRAtggVxYYeflN+UB2pSDCLin/POfD9zroG5BtfsEwVTwIHfweIQfD+P0Fa1fmPFnFsTVrFYbKG0XFqxiPhE5P6cSaBqYgEAmgM5MAACAwEDIDAQMAACAwEDIDAQMAACAwEDIDAQMAACAwEDIDAQMAACAwEDIDAQMAACAwEDIDAQMAACAwEDIDAQMAACAwEDIDAQMAACAwEDIDAQMAACAwEDIDAQMAACAwEDIDAQMAACAwEDIDAQMAACAwEDIDAQMAACAwEDIDAQMAAC83+EA0pY1bVO3QAAAABJRU5ErkJggg==;" vertex="1" parent="1">
          <mxGeometry x="449.35" y="290" width="83.48" height="40" as="geometry" />
        </mxCell>
        <mxCell id="7JapQ6d2uV1ajBbxMQzk-16" value="&lt;span style=&quot;font-size: 20px;&quot;&gt;2&lt;/span&gt;" style="text;html=1;strokeColor=none;fillColor=none;align=center;verticalAlign=middle;whiteSpace=wrap;rounded=0;strokeWidth=6;spacingLeft=0;" vertex="1" parent="1">
          <mxGeometry x="507.61" y="295" width="60" height="30" as="geometry" />
        </mxCell>
      </root>
    </mxGraphModel>
  </diagram>
</mxfile>
